# xmcd CD database file
#
# Track frame offsets:
#	150
#	72660
#	117125
#	145645
#	156465
#	169140
#	176910
#	195325
#	219465
#	255475
#	277270
#
# Disc length: 3889 seconds
#
# Revision: 0
# Processed by: cddbd v1.4PL0 Copyright (c) Steve Scherf et al.
# Submitted via: CDex 1.50
#
DISCID=a90f2f0b
DTITLE=Ben Harper - Church House Blues disc2
DYEAR=1994
DGENRE=Blues
TTITLE0=Like a King > 
TTITLE1=I'll Rise 
TTITLE2=E: God Fearing Man 
TTITLE3=chat
TTITLE4=Mama's Got A Girlfriend Now
TTITLE5=chat
TTITLE6=Bye and Bye I'm Going to See the King 
TTITLE7=Church House Steps 
TTITLE8=Remember >
TTITLE9=Superstition
TTITLE10=Voodoo Child (Slight Return) 
EXTD=YEAR: 1994
EXTT0=
EXTT1=
EXTT2=
EXTT3=
EXTT4=
EXTT5=
EXTT6=
EXTT7=
EXTT8=
EXTT9=
EXTT10=
PLAYORDER=
